<?xml version="1.0" encoding="UTF-8" standalone="no"?>
<!DOCTYPE svg PUBLIC "-//W3C//DTD SVG 1.1//EN"
 "http://www.w3.org/Graphics/SVG/1.1/DTD/svg11.dtd">
<!-- Generated by graphviz version 9.0.0 (20230911.1827)
 -->
<!-- Pages: 1 -->
<svg width="499pt" height="620pt"
 viewBox="0.00 0.00 498.88 620.00" xmlns="http://www.w3.org/2000/svg" xmlns:xlink="http://www.w3.org/1999/xlink">
<g id="graph0" class="graph" transform="scale(1 1) rotate(0) translate(4 616)">
<polygon fill="white" stroke="none" points="-4,4 -4,-616 494.88,-616 494.88,4 -4,4"/>
<!-- planarizer -->
<g id="node1" class="node">
<title>planarizer</title>
<text text-anchor="middle" x="109.25" y="-300.95" font-family="Times,serif" font-size="14.00">planarizer</text>
</g>
<!-- call -->
<g id="node6" class="node">
<title>call</title>
<polygon fill="none" stroke="black" points="151.25,-252 97.25,-252 97.25,-216 151.25,-216 151.25,-252"/>
<text text-anchor="middle" x="124.25" y="-228.95" font-family="Times,serif" font-size="14.00">call</text>
</g>
<!-- planarizer&#45;&gt;call -->
<g id="edge5" class="edge">
<title>planarizer&#45;&gt;call</title>
<path fill="none" stroke="black" d="M112.88,-288.05C114.46,-280.68 116.36,-271.84 118.14,-263.51"/>
<polygon fill="black" stroke="black" points="121.56,-264.27 120.23,-253.76 114.71,-262.8 121.56,-264.27"/>
</g>
<!-- planarizer_learner -->
<g id="node2" class="node">
<title>planarizer_learner</title>
<text text-anchor="middle" x="79.25" y="-444.95" font-family="Times,serif" font-size="14.00">planarizer_learner</text>
</g>
<!-- train_and_save_planarizer -->
<g id="node4" class="node">
<title>train_and_save_planarizer</title>
<polygon fill="none" stroke="black" points="158.5,-396 0,-396 0,-360 158.5,-360 158.5,-396"/>
<text text-anchor="middle" x="79.25" y="-372.95" font-family="Times,serif" font-size="14.00">train_and_save_planarizer</text>
</g>
<!-- planarizer_learner&#45;&gt;train_and_save_planarizer -->
<g id="edge2" class="edge">
<title>planarizer_learner&#45;&gt;train_and_save_planarizer</title>
<path fill="none" stroke="black" d="M79.25,-432.05C79.25,-424.68 79.25,-415.84 79.25,-407.51"/>
<polygon fill="black" stroke="black" points="82.75,-407.79 79.25,-397.79 75.75,-407.79 82.75,-407.79"/>
</g>
<!-- embeddings -->
<g id="node3" class="node">
<title>embeddings</title>
<text text-anchor="middle" x="206.25" y="-444.95" font-family="Times,serif" font-size="14.00">embeddings</text>
</g>
<!-- embeddings&#45;&gt;train_and_save_planarizer -->
<g id="edge3" class="edge">
<title>embeddings&#45;&gt;train_and_save_planarizer</title>
<path fill="none" stroke="black" d="M175.51,-432.05C158.98,-422.95 138.39,-411.59 120.49,-401.73"/>
<polygon fill="black" stroke="black" points="122.37,-398.77 111.92,-397.01 118.99,-404.9 122.37,-398.77"/>
</g>
<!-- embeddings&#45;&gt;call -->
<g id="edge6" class="edge">
<title>embeddings&#45;&gt;call</title>
<path fill="none" stroke="black" d="M201.81,-432.17C193.72,-402.46 175.39,-339.02 153.25,-288 149.49,-279.34 144.79,-270.22 140.28,-262.03"/>
<polygon fill="black" stroke="black" points="143.46,-260.55 135.49,-253.58 137.37,-264.01 143.46,-260.55"/>
</g>
<!-- train_and_save_clusterer -->
<g id="node12" class="node">
<title>train_and_save_clusterer</title>
<polygon fill="none" stroke="black" points="403.75,-396 252.75,-396 252.75,-360 403.75,-360 403.75,-396"/>
<text text-anchor="middle" x="328.25" y="-372.95" font-family="Times,serif" font-size="14.00">train_and_save_clusterer</text>
</g>
<!-- embeddings&#45;&gt;train_and_save_clusterer -->
<g id="edge12" class="edge">
<title>embeddings&#45;&gt;train_and_save_clusterer</title>
<path fill="none" stroke="black" d="M235.78,-432.05C251.58,-422.99 271.26,-411.7 288.39,-401.87"/>
<polygon fill="black" stroke="black" points="289.9,-405.04 296.83,-397.03 286.41,-398.97 289.9,-405.04"/>
</g>
<!-- call_05 -->
<g id="node14" class="node">
<title>call_05</title>
<polygon fill="none" stroke="black" points="265.25,-252 211.25,-252 211.25,-216 265.25,-216 265.25,-252"/>
<text text-anchor="middle" x="238.25" y="-228.95" font-family="Times,serif" font-size="14.00">call</text>
</g>
<!-- embeddings&#45;&gt;call_05 -->
<g id="edge15" class="edge">
<title>embeddings&#45;&gt;call_05</title>
<path fill="none" stroke="black" d="M208.76,-432.21C214.21,-395.74 227.19,-308.96 233.97,-263.65"/>
<polygon fill="black" stroke="black" points="237.42,-264.21 235.44,-253.81 230.5,-263.18 237.42,-264.21"/>
</g>
<!-- train_and_save_planarizer&#45;&gt;planarizer -->
<g id="edge1" class="edge">
<title>train_and_save_planarizer&#45;&gt;planarizer</title>
<path fill="none" stroke="black" d="M86.67,-359.7C89.98,-351.95 93.97,-342.64 97.67,-334.02"/>
<polygon fill="black" stroke="black" points="100.81,-335.58 101.53,-325.01 94.37,-332.83 100.81,-335.58"/>
</g>
<!-- planar_vectors -->
<g id="node5" class="node">
<title>planar_vectors</title>
<text text-anchor="middle" x="124.25" y="-156.95" font-family="Times,serif" font-size="14.00">planar_vectors</text>
</g>
<!-- aggregator -->
<g id="node17" class="node">
<title>aggregator</title>
<polygon fill="none" stroke="black" points="275.12,-108 201.38,-108 201.38,-72 275.12,-72 275.12,-108"/>
<text text-anchor="middle" x="238.25" y="-84.95" font-family="Times,serif" font-size="14.00">aggregator</text>
</g>
<!-- planar_vectors&#45;&gt;aggregator -->
<g id="edge18" class="edge">
<title>planar_vectors&#45;&gt;aggregator</title>
<path fill="none" stroke="black" d="M151.85,-144.05C166.47,-135.07 184.65,-123.91 200.56,-114.14"/>
<polygon fill="black" stroke="black" points="202.14,-117.28 208.83,-109.07 198.47,-111.32 202.14,-117.28"/>
</g>
<!-- call&#45;&gt;planar_vectors -->
<g id="edge4" class="edge">
<title>call&#45;&gt;planar_vectors</title>
<path fill="none" stroke="black" d="M124.25,-215.7C124.25,-208.21 124.25,-199.26 124.25,-190.88"/>
<polygon fill="black" stroke="black" points="127.75,-191.14 124.25,-181.14 120.75,-191.14 127.75,-191.14"/>
</g>
<!-- clusterer_learner -->
<g id="node7" class="node">
<title>clusterer_learner</title>
<text text-anchor="middle" x="328.25" y="-444.95" font-family="Times,serif" font-size="14.00">clusterer_learner</text>
</g>
<!-- clusterer_learner&#45;&gt;train_and_save_clusterer -->
<g id="edge11" class="edge">
<title>clusterer_learner&#45;&gt;train_and_save_clusterer</title>
<path fill="none" stroke="black" d="M328.25,-432.05C328.25,-424.68 328.25,-415.84 328.25,-407.51"/>
<polygon fill="black" stroke="black" points="331.75,-407.79 328.25,-397.79 324.75,-407.79 331.75,-407.79"/>
</g>
<!-- clusterer_learner_factory -->
<g id="node8" class="node">
<title>clusterer_learner_factory</title>
<text text-anchor="middle" x="243.25" y="-588.95" font-family="Times,serif" font-size="14.00">clusterer_learner_factory</text>
</g>
<!-- call_03 -->
<g id="node10" class="node">
<title>call_03</title>
<polygon fill="none" stroke="black" points="355.25,-540 301.25,-540 301.25,-504 355.25,-504 355.25,-540"/>
<text text-anchor="middle" x="328.25" y="-516.95" font-family="Times,serif" font-size="14.00">call</text>
</g>
<!-- clusterer_learner_factory&#45;&gt;call_03 -->
<g id="edge8" class="edge">
<title>clusterer_learner_factory&#45;&gt;call_03</title>
<path fill="none" stroke="black" d="M263.83,-576.05C274.22,-567.5 287.01,-556.96 298.46,-547.54"/>
<polygon fill="black" stroke="black" points="300.61,-550.3 306.1,-541.24 296.16,-544.89 300.61,-550.3"/>
</g>
<!-- clusterer_learner_params -->
<g id="node9" class="node">
<title>clusterer_learner_params</title>
<text text-anchor="middle" x="414.25" y="-588.95" font-family="Times,serif" font-size="14.00">clusterer_learner_params</text>
</g>
<!-- clusterer_learner_params&#45;&gt;call_03 -->
<g id="edge9" class="edge">
<title>clusterer_learner_params&#45;&gt;call_03</title>
<path fill="none" stroke="black" d="M393.43,-576.05C382.92,-567.5 369.97,-556.96 358.39,-547.54"/>
<polygon fill="black" stroke="black" points="360.61,-544.83 350.65,-541.23 356.19,-550.26 360.61,-544.83"/>
</g>
<!-- call_03&#45;&gt;clusterer_learner -->
<g id="edge7" class="edge">
<title>call_03&#45;&gt;clusterer_learner</title>
<path fill="none" stroke="black" d="M328.25,-503.7C328.25,-496.21 328.25,-487.26 328.25,-478.88"/>
<polygon fill="black" stroke="black" points="331.75,-479.14 328.25,-469.14 324.75,-479.14 331.75,-479.14"/>
</g>
<!-- clusterer -->
<g id="node11" class="node">
<title>clusterer</title>
<text text-anchor="middle" x="305.25" y="-300.95" font-family="Times,serif" font-size="14.00">clusterer</text>
</g>
<!-- clusterer&#45;&gt;call_05 -->
<g id="edge14" class="edge">
<title>clusterer&#45;&gt;call_05</title>
<path fill="none" stroke="black" d="M289.03,-288.05C281.08,-279.75 271.35,-269.58 262.54,-260.38"/>
<polygon fill="black" stroke="black" points="265.27,-258.17 255.83,-253.37 260.22,-263.01 265.27,-258.17"/>
</g>
<!-- train_and_save_clusterer&#45;&gt;clusterer -->
<g id="edge10" class="edge">
<title>train_and_save_clusterer&#45;&gt;clusterer</title>
<path fill="none" stroke="black" d="M322.56,-359.7C320.05,-352.04 317.03,-342.85 314.22,-334.3"/>
<polygon fill="black" stroke="black" points="317.63,-333.47 311.18,-325.06 310.98,-335.65 317.63,-333.47"/>
</g>
<!-- cluster_indices -->
<g id="node13" class="node">
<title>cluster_indices</title>
<text text-anchor="middle" x="238.25" y="-156.95" font-family="Times,serif" font-size="14.00">cluster_indices</text>
</g>
<!-- cluster_indices&#45;&gt;aggregator -->
<g id="edge19" class="edge">
<title>cluster_indices&#45;&gt;aggregator</title>
<path fill="none" stroke="black" d="M238.25,-144.05C238.25,-136.68 238.25,-127.84 238.25,-119.51"/>
<polygon fill="black" stroke="black" points="241.75,-119.79 238.25,-109.79 234.75,-119.79 241.75,-119.79"/>
</g>
<!-- call_05&#45;&gt;cluster_indices -->
<g id="edge13" class="edge">
<title>call_05&#45;&gt;cluster_indices</title>
<path fill="none" stroke="black" d="M238.25,-215.7C238.25,-208.21 238.25,-199.26 238.25,-190.88"/>
<polygon fill="black" stroke="black" points="241.75,-191.14 238.25,-181.14 234.75,-191.14 241.75,-191.14"/>
</g>
<!-- aggregate -->
<g id="node15" class="node">
<title>aggregate</title>
<text text-anchor="middle" x="238.25" y="-12.95" font-family="Times,serif" font-size="14.00">aggregate</text>
</g>
<!-- texts_metadata -->
<g id="node16" class="node">
<title>texts_metadata</title>
<text text-anchor="middle" x="353.25" y="-156.95" font-family="Times,serif" font-size="14.00">texts_metadata</text>
</g>
<!-- texts_metadata&#45;&gt;aggregator -->
<g id="edge17" class="edge">
<title>texts_metadata&#45;&gt;aggregator</title>
<path fill="none" stroke="black" d="M325.41,-144.05C310.66,-135.07 292.32,-123.91 276.27,-114.14"/>
<polygon fill="black" stroke="black" points="278.29,-111.27 267.92,-109.06 274.65,-117.25 278.29,-111.27"/>
</g>
<!-- aggregator&#45;&gt;aggregate -->
<g id="edge16" class="edge">
<title>aggregator&#45;&gt;aggregate</title>
<path fill="none" stroke="black" d="M238.25,-71.7C238.25,-64.21 238.25,-55.26 238.25,-46.88"/>
<polygon fill="black" stroke="black" points="241.75,-47.14 238.25,-37.14 234.75,-47.14 241.75,-47.14"/>
</g>
</g>
</svg>
