<?xml version="1.0" encoding="UTF-8" standalone="no"?>
<!DOCTYPE svg PUBLIC "-//W3C//DTD SVG 1.1//EN"
 "http://www.w3.org/Graphics/SVG/1.1/DTD/svg11.dtd">
<!-- Generated by graphviz version 9.0.0 (20230911.1827)
 -->
<!-- Pages: 1 -->
<svg width="334pt" height="332pt"
 viewBox="0.00 0.00 333.62 332.00" xmlns="http://www.w3.org/2000/svg" xmlns:xlink="http://www.w3.org/1999/xlink">
<g id="graph0" class="graph" transform="scale(1 1) rotate(0) translate(4 328)">
<polygon fill="white" stroke="none" points="-4,4 -4,-328 329.62,-328 329.62,4 -4,4"/>
<!-- planar_vectors -->
<g id="node1" class="node">
<title>planar_vectors</title>
<text text-anchor="middle" x="47.75" y="-156.95" font-family="Times,serif" font-size="14.00">planar_vectors</text>
</g>
<!-- aggregator -->
<g id="node8" class="node">
<title>aggregator</title>
<polygon fill="none" stroke="black" points="198.62,-108 124.88,-108 124.88,-72 198.62,-72 198.62,-108"/>
<text text-anchor="middle" x="161.75" y="-84.95" font-family="Times,serif" font-size="14.00">aggregator</text>
</g>
<!-- planar_vectors&#45;&gt;aggregator -->
<g id="edge7" class="edge">
<title>planar_vectors&#45;&gt;aggregator</title>
<path fill="none" stroke="black" d="M75.35,-144.05C89.97,-135.07 108.15,-123.91 124.06,-114.14"/>
<polygon fill="black" stroke="black" points="125.64,-117.28 132.33,-109.07 121.97,-111.32 125.64,-117.28"/>
</g>
<!-- embeddings -->
<g id="node2" class="node">
<title>embeddings</title>
<text text-anchor="middle" x="104.75" y="-300.95" font-family="Times,serif" font-size="14.00">embeddings</text>
</g>
<!-- planarizer -->
<g id="node3" class="node">
<title>planarizer</title>
<polygon fill="none" stroke="black" points="97.75,-252 27.75,-252 27.75,-216 97.75,-216 97.75,-252"/>
<text text-anchor="middle" x="62.75" y="-228.95" font-family="Times,serif" font-size="14.00">planarizer</text>
</g>
<!-- embeddings&#45;&gt;planarizer -->
<g id="edge2" class="edge">
<title>embeddings&#45;&gt;planarizer</title>
<path fill="none" stroke="black" d="M94.58,-288.05C89.91,-280.26 84.24,-270.82 79,-262.08"/>
<polygon fill="black" stroke="black" points="82.04,-260.35 73.89,-253.57 76.04,-263.95 82.04,-260.35"/>
</g>
<!-- clusterer -->
<g id="node5" class="node">
<title>clusterer</title>
<polygon fill="none" stroke="black" points="185,-252 122.5,-252 122.5,-216 185,-216 185,-252"/>
<text text-anchor="middle" x="153.75" y="-228.95" font-family="Times,serif" font-size="14.00">clusterer</text>
</g>
<!-- embeddings&#45;&gt;clusterer -->
<g id="edge4" class="edge">
<title>embeddings&#45;&gt;clusterer</title>
<path fill="none" stroke="black" d="M116.61,-288.05C122.19,-280.09 128.96,-270.41 135.19,-261.51"/>
<polygon fill="black" stroke="black" points="137.92,-263.71 140.79,-253.52 132.19,-259.7 137.92,-263.71"/>
</g>
<!-- planarizer&#45;&gt;planar_vectors -->
<g id="edge1" class="edge">
<title>planarizer&#45;&gt;planar_vectors</title>
<path fill="none" stroke="black" d="M59.04,-215.7C57.44,-208.21 55.52,-199.26 53.72,-190.88"/>
<polygon fill="black" stroke="black" points="57.15,-190.15 51.63,-181.1 50.3,-191.61 57.15,-190.15"/>
</g>
<!-- cluster_indices -->
<g id="node4" class="node">
<title>cluster_indices</title>
<text text-anchor="middle" x="161.75" y="-156.95" font-family="Times,serif" font-size="14.00">cluster_indices</text>
</g>
<!-- cluster_indices&#45;&gt;aggregator -->
<g id="edge8" class="edge">
<title>cluster_indices&#45;&gt;aggregator</title>
<path fill="none" stroke="black" d="M161.75,-144.05C161.75,-136.68 161.75,-127.84 161.75,-119.51"/>
<polygon fill="black" stroke="black" points="165.25,-119.79 161.75,-109.79 158.25,-119.79 165.25,-119.79"/>
</g>
<!-- clusterer&#45;&gt;cluster_indices -->
<g id="edge3" class="edge">
<title>clusterer&#45;&gt;cluster_indices</title>
<path fill="none" stroke="black" d="M155.73,-215.7C156.58,-208.21 157.61,-199.26 158.56,-190.88"/>
<polygon fill="black" stroke="black" points="162.02,-191.46 159.68,-181.13 155.07,-190.66 162.02,-191.46"/>
</g>
<!-- aggregate -->
<g id="node6" class="node">
<title>aggregate</title>
<text text-anchor="middle" x="161.75" y="-12.95" font-family="Times,serif" font-size="14.00">aggregate</text>
</g>
<!-- texts_metadata -->
<g id="node7" class="node">
<title>texts_metadata</title>
<text text-anchor="middle" x="276.75" y="-156.95" font-family="Times,serif" font-size="14.00">texts_metadata</text>
</g>
<!-- texts_metadata&#45;&gt;aggregator -->
<g id="edge6" class="edge">
<title>texts_metadata&#45;&gt;aggregator</title>
<path fill="none" stroke="black" d="M248.91,-144.05C234.16,-135.07 215.82,-123.91 199.77,-114.14"/>
<polygon fill="black" stroke="black" points="201.79,-111.27 191.42,-109.06 198.15,-117.25 201.79,-111.27"/>
</g>
<!-- aggregator&#45;&gt;aggregate -->
<g id="edge5" class="edge">
<title>aggregator&#45;&gt;aggregate</title>
<path fill="none" stroke="black" d="M161.75,-71.7C161.75,-64.21 161.75,-55.26 161.75,-46.88"/>
<polygon fill="black" stroke="black" points="165.25,-47.14 161.75,-37.14 158.25,-47.14 165.25,-47.14"/>
</g>
</g>
</svg>
