<?xml version="1.0" encoding="UTF-8" standalone="no"?>
<!DOCTYPE svg PUBLIC "-//W3C//DTD SVG 1.1//EN"
 "http://www.w3.org/Graphics/SVG/1.1/DTD/svg11.dtd">
<!-- Generated by graphviz version 9.0.0 (20230911.1827)
 -->
<!-- Pages: 1 -->
<svg width="401pt" height="1052pt"
 viewBox="0.00 0.00 400.62 1052.00" xmlns="http://www.w3.org/2000/svg" xmlns:xlink="http://www.w3.org/1999/xlink">
<g id="graph0" class="graph" transform="scale(1 1) rotate(0) translate(4 1048)">
<polygon fill="white" stroke="none" points="-4,4 -4,-1048 396.62,-1048 396.62,4 -4,4"/>
<!-- cached_src -->
<g id="node1" class="node">
<title>cached_src</title>
<text text-anchor="middle" x="262.5" y="-876.95" font-family="Times,serif" font-size="14.00">cached_src</text>
</g>
<!-- call_02 -->
<g id="node7" class="node">
<title>call_02</title>
<polygon fill="none" stroke="black" points="246.5,-828 192.5,-828 192.5,-792 246.5,-792 246.5,-828"/>
<text text-anchor="middle" x="219.5" y="-804.95" font-family="Times,serif" font-size="14.00">call</text>
</g>
<!-- cached_src&#45;&gt;call_02 -->
<g id="edge6" class="edge">
<title>cached_src&#45;&gt;call_02</title>
<path fill="none" stroke="black" d="M252.09,-864.05C247.3,-856.26 241.5,-846.82 236.13,-838.08"/>
<polygon fill="black" stroke="black" points="239.12,-836.25 230.9,-829.56 233.16,-839.92 239.12,-836.25"/>
</g>
<!-- data_acquirer -->
<g id="node2" class="node">
<title>data_acquirer</title>
<text text-anchor="middle" x="217.5" y="-1020.95" font-family="Times,serif" font-size="14.00">data_acquirer</text>
</g>
<!-- call -->
<g id="node4" class="node">
<title>call</title>
<polygon fill="none" stroke="black" points="289.5,-972 235.5,-972 235.5,-936 289.5,-936 289.5,-972"/>
<text text-anchor="middle" x="262.5" y="-948.95" font-family="Times,serif" font-size="14.00">call</text>
</g>
<!-- data_acquirer&#45;&gt;call -->
<g id="edge2" class="edge">
<title>data_acquirer&#45;&gt;call</title>
<path fill="none" stroke="black" d="M228.39,-1008.05C233.46,-1000.18 239.6,-990.62 245.28,-981.79"/>
<polygon fill="black" stroke="black" points="248.11,-983.85 250.58,-973.55 242.22,-980.07 248.11,-983.85"/>
</g>
<!-- src_uri -->
<g id="node3" class="node">
<title>src_uri</title>
<text text-anchor="middle" x="307.5" y="-1020.95" font-family="Times,serif" font-size="14.00">src_uri</text>
</g>
<!-- src_uri&#45;&gt;call -->
<g id="edge3" class="edge">
<title>src_uri&#45;&gt;call</title>
<path fill="none" stroke="black" d="M296.61,-1008.05C291.54,-1000.18 285.4,-990.62 279.72,-981.79"/>
<polygon fill="black" stroke="black" points="282.78,-980.07 274.42,-973.55 276.89,-983.85 282.78,-980.07"/>
</g>
<!-- call&#45;&gt;cached_src -->
<g id="edge1" class="edge">
<title>call&#45;&gt;cached_src</title>
<path fill="none" stroke="black" d="M262.5,-935.7C262.5,-928.21 262.5,-919.26 262.5,-910.88"/>
<polygon fill="black" stroke="black" points="266,-911.14 262.5,-901.14 259,-911.14 266,-911.14"/>
</g>
<!-- base_data -->
<g id="node5" class="node">
<title>base_data</title>
<text text-anchor="middle" x="219.5" y="-732.95" font-family="Times,serif" font-size="14.00">base_data</text>
</g>
<!-- call_03 -->
<g id="node10" class="node">
<title>call_03</title>
<polygon fill="none" stroke="black" points="357.5,-684 303.5,-684 303.5,-648 357.5,-648 357.5,-684"/>
<text text-anchor="middle" x="330.5" y="-660.95" font-family="Times,serif" font-size="14.00">call</text>
</g>
<!-- base_data&#45;&gt;call_03 -->
<g id="edge9" class="edge">
<title>base_data&#45;&gt;call_03</title>
<path fill="none" stroke="black" d="M246.37,-720.05C260.61,-711.07 278.31,-699.91 293.8,-690.14"/>
<polygon fill="black" stroke="black" points="295.23,-693.38 301.83,-685.08 291.5,-687.46 295.23,-693.38"/>
</g>
<!-- call_04 -->
<g id="node13" class="node">
<title>call_04</title>
<polygon fill="none" stroke="black" points="149.5,-684 95.5,-684 95.5,-648 149.5,-648 149.5,-684"/>
<text text-anchor="middle" x="122.5" y="-660.95" font-family="Times,serif" font-size="14.00">call</text>
</g>
<!-- base_data&#45;&gt;call_04 -->
<g id="edge12" class="edge">
<title>base_data&#45;&gt;call_04</title>
<path fill="none" stroke="black" d="M196.02,-720.05C183.93,-711.33 168.98,-700.54 155.72,-690.98"/>
<polygon fill="black" stroke="black" points="157.82,-688.17 147.67,-685.16 153.73,-693.85 157.82,-688.17"/>
</g>
<!-- prepper -->
<g id="node6" class="node">
<title>prepper</title>
<text text-anchor="middle" x="177.5" y="-876.95" font-family="Times,serif" font-size="14.00">prepper</text>
</g>
<!-- prepper&#45;&gt;call_02 -->
<g id="edge5" class="edge">
<title>prepper&#45;&gt;call_02</title>
<path fill="none" stroke="black" d="M187.67,-864.05C192.34,-856.26 198.01,-846.82 203.25,-838.08"/>
<polygon fill="black" stroke="black" points="206.21,-839.95 208.36,-829.57 200.21,-836.35 206.21,-839.95"/>
</g>
<!-- call_02&#45;&gt;base_data -->
<g id="edge4" class="edge">
<title>call_02&#45;&gt;base_data</title>
<path fill="none" stroke="black" d="M219.5,-791.7C219.5,-784.21 219.5,-775.26 219.5,-766.88"/>
<polygon fill="black" stroke="black" points="223,-767.14 219.5,-757.14 216,-767.14 223,-767.14"/>
</g>
<!-- texts_metadata -->
<g id="node8" class="node">
<title>texts_metadata</title>
<text text-anchor="middle" x="330.5" y="-516.95" font-family="Times,serif" font-size="14.00">texts_metadata</text>
</g>
<!-- call_09 -->
<g id="node28" class="node">
<title>call_09</title>
<polygon fill="none" stroke="black" points="240.5,-108 186.5,-108 186.5,-72 240.5,-72 240.5,-108"/>
<text text-anchor="middle" x="213.5" y="-84.95" font-family="Times,serif" font-size="14.00">call</text>
</g>
<!-- texts_metadata&#45;&gt;call_09 -->
<g id="edge27" class="edge">
<title>texts_metadata&#45;&gt;call_09</title>
<path fill="none" stroke="black" d="M330.5,-504.39C330.5,-477.87 330.5,-424.36 330.5,-379 330.5,-379 330.5,-379 330.5,-233 330.5,-192.55 335.74,-176.38 311.5,-144 296.66,-124.18 272.16,-110.93 251.37,-102.64"/>
<polygon fill="black" stroke="black" points="252.61,-99.36 242.02,-99.16 250.17,-105.93 252.61,-99.36"/>
</g>
<!-- metadata_extractor -->
<g id="node9" class="node">
<title>metadata_extractor</title>
<text text-anchor="middle" x="332.5" y="-732.95" font-family="Times,serif" font-size="14.00">metadata_extractor</text>
</g>
<!-- metadata_extractor&#45;&gt;call_03 -->
<g id="edge8" class="edge">
<title>metadata_extractor&#45;&gt;call_03</title>
<path fill="none" stroke="black" d="M332.02,-720.05C331.81,-712.68 331.55,-703.84 331.31,-695.51"/>
<polygon fill="black" stroke="black" points="334.82,-695.68 331.04,-685.79 327.82,-695.88 334.82,-695.68"/>
</g>
<!-- call_03&#45;&gt;texts_metadata -->
<g id="edge7" class="edge">
<title>call_03&#45;&gt;texts_metadata</title>
<path fill="none" stroke="black" d="M330.5,-647.59C330.5,-623.48 330.5,-579.67 330.5,-550.95"/>
<polygon fill="black" stroke="black" points="334,-551.19 330.5,-541.19 327,-551.19 334,-551.19"/>
</g>
<!-- texts -->
<g id="node11" class="node">
<title>texts</title>
<text text-anchor="middle" x="122.5" y="-588.95" font-family="Times,serif" font-size="14.00">texts</text>
</g>
<!-- call_05 -->
<g id="node16" class="node">
<title>call_05</title>
<polygon fill="none" stroke="black" points="151.5,-540 97.5,-540 97.5,-504 151.5,-504 151.5,-540"/>
<text text-anchor="middle" x="124.5" y="-516.95" font-family="Times,serif" font-size="14.00">call</text>
</g>
<!-- texts&#45;&gt;call_05 -->
<g id="edge15" class="edge">
<title>texts&#45;&gt;call_05</title>
<path fill="none" stroke="black" d="M122.98,-576.05C123.19,-568.68 123.45,-559.84 123.69,-551.51"/>
<polygon fill="black" stroke="black" points="127.18,-551.88 123.96,-541.79 120.18,-551.68 127.18,-551.88"/>
</g>
<!-- text_extractor -->
<g id="node12" class="node">
<title>text_extractor</title>
<text text-anchor="middle" x="121.5" y="-732.95" font-family="Times,serif" font-size="14.00">text_extractor</text>
</g>
<!-- text_extractor&#45;&gt;call_04 -->
<g id="edge11" class="edge">
<title>text_extractor&#45;&gt;call_04</title>
<path fill="none" stroke="black" d="M121.74,-720.05C121.85,-712.68 121.97,-703.84 122.09,-695.51"/>
<polygon fill="black" stroke="black" points="125.59,-695.84 122.23,-685.79 118.59,-695.74 125.59,-695.84"/>
</g>
<!-- call_04&#45;&gt;texts -->
<g id="edge10" class="edge">
<title>call_04&#45;&gt;texts</title>
<path fill="none" stroke="black" d="M122.5,-647.7C122.5,-640.21 122.5,-631.26 122.5,-622.88"/>
<polygon fill="black" stroke="black" points="126,-623.14 122.5,-613.14 119,-623.14 126,-623.14"/>
</g>
<!-- segments -->
<g id="node14" class="node">
<title>segments</title>
<text text-anchor="middle" x="124.5" y="-444.95" font-family="Times,serif" font-size="14.00">segments</text>
</g>
<!-- call_06 -->
<g id="node19" class="node">
<title>call_06</title>
<polygon fill="none" stroke="black" points="156.5,-396 102.5,-396 102.5,-360 156.5,-360 156.5,-396"/>
<text text-anchor="middle" x="129.5" y="-372.95" font-family="Times,serif" font-size="14.00">call</text>
</g>
<!-- segments&#45;&gt;call_06 -->
<g id="edge18" class="edge">
<title>segments&#45;&gt;call_06</title>
<path fill="none" stroke="black" d="M125.71,-432.05C126.24,-424.68 126.87,-415.84 127.46,-407.51"/>
<polygon fill="black" stroke="black" points="130.94,-408.01 128.16,-397.78 123.95,-407.51 130.94,-408.01"/>
</g>
<!-- segmenter -->
<g id="node15" class="node">
<title>segmenter</title>
<text text-anchor="middle" x="203.5" y="-588.95" font-family="Times,serif" font-size="14.00">segmenter</text>
</g>
<!-- segmenter&#45;&gt;call_05 -->
<g id="edge14" class="edge">
<title>segmenter&#45;&gt;call_05</title>
<path fill="none" stroke="black" d="M184.38,-576.05C174.82,-567.58 163.06,-557.17 152.51,-547.82"/>
<polygon fill="black" stroke="black" points="154.93,-545.29 145.13,-541.28 150.29,-550.53 154.93,-545.29"/>
</g>
<!-- call_05&#45;&gt;segments -->
<g id="edge13" class="edge">
<title>call_05&#45;&gt;segments</title>
<path fill="none" stroke="black" d="M124.5,-503.7C124.5,-496.21 124.5,-487.26 124.5,-478.88"/>
<polygon fill="black" stroke="black" points="128,-479.14 124.5,-469.14 121,-479.14 128,-479.14"/>
</g>
<!-- embeddings -->
<g id="node17" class="node">
<title>embeddings</title>
<text text-anchor="middle" x="129.5" y="-300.95" font-family="Times,serif" font-size="14.00">embeddings</text>
</g>
<!-- call_07 -->
<g id="node22" class="node">
<title>call_07</title>
<polygon fill="none" stroke="black" points="189.5,-252 135.5,-252 135.5,-216 189.5,-216 189.5,-252"/>
<text text-anchor="middle" x="162.5" y="-228.95" font-family="Times,serif" font-size="14.00">call</text>
</g>
<!-- embeddings&#45;&gt;call_07 -->
<g id="edge21" class="edge">
<title>embeddings&#45;&gt;call_07</title>
<path fill="none" stroke="black" d="M137.49,-288.05C141.08,-280.43 145.42,-271.23 149.46,-262.65"/>
<polygon fill="black" stroke="black" points="152.61,-264.18 153.71,-253.64 146.28,-261.2 152.61,-264.18"/>
</g>
<!-- call_08 -->
<g id="node25" class="node">
<title>call_08</title>
<polygon fill="none" stroke="black" points="75.5,-252 21.5,-252 21.5,-216 75.5,-216 75.5,-252"/>
<text text-anchor="middle" x="48.5" y="-228.95" font-family="Times,serif" font-size="14.00">call</text>
</g>
<!-- embeddings&#45;&gt;call_08 -->
<g id="edge24" class="edge">
<title>embeddings&#45;&gt;call_08</title>
<path fill="none" stroke="black" d="M109.89,-288.05C99.99,-279.5 87.8,-268.96 76.89,-259.54"/>
<polygon fill="black" stroke="black" points="79.49,-257.16 69.64,-253.26 74.91,-262.45 79.49,-257.16"/>
</g>
<!-- embedder -->
<g id="node18" class="node">
<title>embedder</title>
<text text-anchor="middle" x="211.5" y="-444.95" font-family="Times,serif" font-size="14.00">embedder</text>
</g>
<!-- embedder&#45;&gt;call_06 -->
<g id="edge17" class="edge">
<title>embedder&#45;&gt;call_06</title>
<path fill="none" stroke="black" d="M191.65,-432.05C181.63,-423.5 169.28,-412.96 158.24,-403.54"/>
<polygon fill="black" stroke="black" points="160.77,-401.09 150.89,-397.26 156.22,-406.41 160.77,-401.09"/>
</g>
<!-- call_06&#45;&gt;embeddings -->
<g id="edge16" class="edge">
<title>call_06&#45;&gt;embeddings</title>
<path fill="none" stroke="black" d="M129.5,-359.7C129.5,-352.21 129.5,-343.26 129.5,-334.88"/>
<polygon fill="black" stroke="black" points="133,-335.14 129.5,-325.14 126,-335.14 133,-335.14"/>
</g>
<!-- planar_vectors -->
<g id="node20" class="node">
<title>planar_vectors</title>
<text text-anchor="middle" x="162.5" y="-156.95" font-family="Times,serif" font-size="14.00">planar_vectors</text>
</g>
<!-- planar_vectors&#45;&gt;call_09 -->
<g id="edge28" class="edge">
<title>planar_vectors&#45;&gt;call_09</title>
<path fill="none" stroke="black" d="M174.85,-144.05C180.65,-136.09 187.7,-126.41 194.19,-117.51"/>
<polygon fill="black" stroke="black" points="196.96,-119.64 200.02,-109.5 191.3,-115.52 196.96,-119.64"/>
</g>
<!-- planarizer -->
<g id="node21" class="node">
<title>planarizer</title>
<text text-anchor="middle" x="223.5" y="-300.95" font-family="Times,serif" font-size="14.00">planarizer</text>
</g>
<!-- planarizer&#45;&gt;call_07 -->
<g id="edge20" class="edge">
<title>planarizer&#45;&gt;call_07</title>
<path fill="none" stroke="black" d="M208.73,-288.05C201.65,-279.92 193,-270 185.11,-260.94"/>
<polygon fill="black" stroke="black" points="187.76,-258.66 178.55,-253.42 182.48,-263.25 187.76,-258.66"/>
</g>
<!-- call_07&#45;&gt;planar_vectors -->
<g id="edge19" class="edge">
<title>call_07&#45;&gt;planar_vectors</title>
<path fill="none" stroke="black" d="M162.5,-215.7C162.5,-208.21 162.5,-199.26 162.5,-190.88"/>
<polygon fill="black" stroke="black" points="166,-191.14 162.5,-181.14 159,-191.14 166,-191.14"/>
</g>
<!-- cluster_indices -->
<g id="node23" class="node">
<title>cluster_indices</title>
<text text-anchor="middle" x="48.5" y="-156.95" font-family="Times,serif" font-size="14.00">cluster_indices</text>
</g>
<!-- cluster_indices&#45;&gt;call_09 -->
<g id="edge29" class="edge">
<title>cluster_indices&#45;&gt;call_09</title>
<path fill="none" stroke="black" d="M88.44,-144.05C115.01,-132.78 149.7,-118.07 175.8,-106.99"/>
<polygon fill="black" stroke="black" points="176.82,-110.36 184.66,-103.23 174.09,-103.92 176.82,-110.36"/>
</g>
<!-- clusterer -->
<g id="node24" class="node">
<title>clusterer</title>
<text text-anchor="middle" x="39.5" y="-300.95" font-family="Times,serif" font-size="14.00">clusterer</text>
</g>
<!-- clusterer&#45;&gt;call_08 -->
<g id="edge23" class="edge">
<title>clusterer&#45;&gt;call_08</title>
<path fill="none" stroke="black" d="M41.68,-288.05C42.63,-280.68 43.76,-271.84 44.83,-263.51"/>
<polygon fill="black" stroke="black" points="48.28,-264.14 46.09,-253.78 41.34,-263.25 48.28,-264.14"/>
</g>
<!-- call_08&#45;&gt;cluster_indices -->
<g id="edge22" class="edge">
<title>call_08&#45;&gt;cluster_indices</title>
<path fill="none" stroke="black" d="M48.5,-215.7C48.5,-208.21 48.5,-199.26 48.5,-190.88"/>
<polygon fill="black" stroke="black" points="52,-191.14 48.5,-181.14 45,-191.14 52,-191.14"/>
</g>
<!-- aggregate -->
<g id="node26" class="node">
<title>aggregate</title>
<text text-anchor="middle" x="213.5" y="-12.95" font-family="Times,serif" font-size="14.00">aggregate</text>
</g>
<!-- aggregator -->
<g id="node27" class="node">
<title>aggregator</title>
<text text-anchor="middle" x="265.5" y="-156.95" font-family="Times,serif" font-size="14.00">aggregator</text>
</g>
<!-- aggregator&#45;&gt;call_09 -->
<g id="edge26" class="edge">
<title>aggregator&#45;&gt;call_09</title>
<path fill="none" stroke="black" d="M252.91,-144.05C247,-136.09 239.81,-126.41 233.19,-117.51"/>
<polygon fill="black" stroke="black" points="236.01,-115.43 227.24,-109.49 230.39,-119.6 236.01,-115.43"/>
</g>
<!-- call_09&#45;&gt;aggregate -->
<g id="edge25" class="edge">
<title>call_09&#45;&gt;aggregate</title>
<path fill="none" stroke="black" d="M213.5,-71.7C213.5,-64.21 213.5,-55.26 213.5,-46.88"/>
<polygon fill="black" stroke="black" points="217,-47.14 213.5,-37.14 210,-47.14 217,-47.14"/>
</g>
</g>
</svg>
