<?xml version="1.0" encoding="UTF-8" standalone="no"?>
<!DOCTYPE svg PUBLIC "-//W3C//DTD SVG 1.1//EN"
 "http://www.w3.org/Graphics/SVG/1.1/DTD/svg11.dtd">
<!-- Generated by graphviz version 9.0.0 (20230911.1827)
 -->
<!-- Pages: 1 -->
<svg width="307pt" height="1052pt"
 viewBox="0.00 0.00 306.62 1052.00" xmlns="http://www.w3.org/2000/svg" xmlns:xlink="http://www.w3.org/1999/xlink">
<g id="graph0" class="graph" transform="scale(1 1) rotate(0) translate(4 1048)">
<polygon fill="white" stroke="none" points="-4,4 -4,-1048 302.62,-1048 302.62,4 -4,4"/>
<!-- cached_src -->
<g id="node1" class="node">
<title>cached_src</title>
<text text-anchor="middle" x="122.12" y="-876.95" font-family="Times,serif" font-size="14.00">cached_src</text>
</g>
<!-- prepper -->
<g id="node5" class="node">
<title>prepper</title>
<polygon fill="none" stroke="black" points="150.75,-828 93.5,-828 93.5,-792 150.75,-792 150.75,-828"/>
<text text-anchor="middle" x="122.12" y="-804.95" font-family="Times,serif" font-size="14.00">prepper</text>
</g>
<!-- cached_src&#45;&gt;prepper -->
<g id="edge4" class="edge">
<title>cached_src&#45;&gt;prepper</title>
<path fill="none" stroke="black" d="M122.12,-864.05C122.12,-856.68 122.12,-847.84 122.12,-839.51"/>
<polygon fill="black" stroke="black" points="125.63,-839.79 122.13,-829.79 118.63,-839.79 125.63,-839.79"/>
</g>
<!-- src_uri -->
<g id="node2" class="node">
<title>src_uri</title>
<text text-anchor="middle" x="122.12" y="-1020.95" font-family="Times,serif" font-size="14.00">src_uri</text>
</g>
<!-- data_acquirer -->
<g id="node3" class="node">
<title>data_acquirer</title>
<polygon fill="none" stroke="black" points="166.88,-972 77.38,-972 77.38,-936 166.88,-936 166.88,-972"/>
<text text-anchor="middle" x="122.12" y="-948.95" font-family="Times,serif" font-size="14.00">data_acquirer</text>
</g>
<!-- src_uri&#45;&gt;data_acquirer -->
<g id="edge2" class="edge">
<title>src_uri&#45;&gt;data_acquirer</title>
<path fill="none" stroke="black" d="M122.12,-1008.05C122.12,-1000.68 122.12,-991.84 122.12,-983.51"/>
<polygon fill="black" stroke="black" points="125.63,-983.79 122.13,-973.79 118.63,-983.79 125.63,-983.79"/>
</g>
<!-- data_acquirer&#45;&gt;cached_src -->
<g id="edge1" class="edge">
<title>data_acquirer&#45;&gt;cached_src</title>
<path fill="none" stroke="black" d="M122.12,-935.7C122.12,-928.21 122.12,-919.26 122.12,-910.88"/>
<polygon fill="black" stroke="black" points="125.63,-911.14 122.13,-901.14 118.63,-911.14 125.63,-911.14"/>
</g>
<!-- base_data -->
<g id="node4" class="node">
<title>base_data</title>
<text text-anchor="middle" x="122.12" y="-732.95" font-family="Times,serif" font-size="14.00">base_data</text>
</g>
<!-- metadata_extractor -->
<g id="node7" class="node">
<title>metadata_extractor</title>
<polygon fill="none" stroke="black" points="120.25,-684 0,-684 0,-648 120.25,-648 120.25,-684"/>
<text text-anchor="middle" x="60.12" y="-660.95" font-family="Times,serif" font-size="14.00">metadata_extractor</text>
</g>
<!-- base_data&#45;&gt;metadata_extractor -->
<g id="edge6" class="edge">
<title>base_data&#45;&gt;metadata_extractor</title>
<path fill="none" stroke="black" d="M107.12,-720.05C99.84,-711.84 90.94,-701.79 82.85,-692.66"/>
<polygon fill="black" stroke="black" points="85.68,-690.57 76.43,-685.41 80.44,-695.21 85.68,-690.57"/>
</g>
<!-- text_extractor -->
<g id="node9" class="node">
<title>text_extractor</title>
<polygon fill="none" stroke="black" points="229.62,-684 138.62,-684 138.62,-648 229.62,-648 229.62,-684"/>
<text text-anchor="middle" x="184.12" y="-660.95" font-family="Times,serif" font-size="14.00">text_extractor</text>
</g>
<!-- base_data&#45;&gt;text_extractor -->
<g id="edge8" class="edge">
<title>base_data&#45;&gt;text_extractor</title>
<path fill="none" stroke="black" d="M137.13,-720.05C144.41,-711.84 153.31,-701.79 161.4,-692.66"/>
<polygon fill="black" stroke="black" points="163.81,-695.21 167.82,-685.41 158.57,-690.57 163.81,-695.21"/>
</g>
<!-- prepper&#45;&gt;base_data -->
<g id="edge3" class="edge">
<title>prepper&#45;&gt;base_data</title>
<path fill="none" stroke="black" d="M122.12,-791.7C122.12,-784.21 122.12,-775.26 122.12,-766.88"/>
<polygon fill="black" stroke="black" points="125.63,-767.14 122.13,-757.14 118.63,-767.14 125.63,-767.14"/>
</g>
<!-- texts_metadata -->
<g id="node6" class="node">
<title>texts_metadata</title>
<text text-anchor="middle" x="60.12" y="-516.95" font-family="Times,serif" font-size="14.00">texts_metadata</text>
</g>
<!-- aggregator -->
<g id="node19" class="node">
<title>aggregator</title>
<polygon fill="none" stroke="black" points="173,-108 99.25,-108 99.25,-72 173,-72 173,-108"/>
<text text-anchor="middle" x="136.12" y="-84.95" font-family="Times,serif" font-size="14.00">aggregator</text>
</g>
<!-- texts_metadata&#45;&gt;aggregator -->
<g id="edge18" class="edge">
<title>texts_metadata&#45;&gt;aggregator</title>
<path fill="none" stroke="black" d="M60.12,-504.39C60.12,-477.87 60.12,-424.36 60.12,-379 60.12,-379 60.12,-379 60.12,-233 60.12,-192.55 59.17,-179.18 79.12,-144 85.14,-133.4 93.99,-123.69 102.93,-115.56"/>
<polygon fill="black" stroke="black" points="104.97,-118.42 110.29,-109.26 100.42,-113.1 104.97,-118.42"/>
</g>
<!-- metadata_extractor&#45;&gt;texts_metadata -->
<g id="edge5" class="edge">
<title>metadata_extractor&#45;&gt;texts_metadata</title>
<path fill="none" stroke="black" d="M60.12,-647.59C60.12,-623.48 60.12,-579.67 60.12,-550.95"/>
<polygon fill="black" stroke="black" points="63.63,-551.19 60.13,-541.19 56.63,-551.19 63.63,-551.19"/>
</g>
<!-- texts -->
<g id="node8" class="node">
<title>texts</title>
<text text-anchor="middle" x="184.12" y="-588.95" font-family="Times,serif" font-size="14.00">texts</text>
</g>
<!-- segmenter -->
<g id="node11" class="node">
<title>segmenter</title>
<polygon fill="none" stroke="black" points="220.25,-540 148,-540 148,-504 220.25,-504 220.25,-540"/>
<text text-anchor="middle" x="184.12" y="-516.95" font-family="Times,serif" font-size="14.00">segmenter</text>
</g>
<!-- texts&#45;&gt;segmenter -->
<g id="edge10" class="edge">
<title>texts&#45;&gt;segmenter</title>
<path fill="none" stroke="black" d="M184.12,-576.05C184.12,-568.68 184.12,-559.84 184.12,-551.51"/>
<polygon fill="black" stroke="black" points="187.63,-551.79 184.13,-541.79 180.63,-551.79 187.63,-551.79"/>
</g>
<!-- text_extractor&#45;&gt;texts -->
<g id="edge7" class="edge">
<title>text_extractor&#45;&gt;texts</title>
<path fill="none" stroke="black" d="M184.12,-647.7C184.12,-640.21 184.12,-631.26 184.12,-622.88"/>
<polygon fill="black" stroke="black" points="187.63,-623.14 184.13,-613.14 180.63,-623.14 187.63,-623.14"/>
</g>
<!-- segments -->
<g id="node10" class="node">
<title>segments</title>
<text text-anchor="middle" x="184.12" y="-444.95" font-family="Times,serif" font-size="14.00">segments</text>
</g>
<!-- embedder -->
<g id="node13" class="node">
<title>embedder</title>
<polygon fill="none" stroke="black" points="219.12,-396 149.12,-396 149.12,-360 219.12,-360 219.12,-396"/>
<text text-anchor="middle" x="184.12" y="-372.95" font-family="Times,serif" font-size="14.00">embedder</text>
</g>
<!-- segments&#45;&gt;embedder -->
<g id="edge12" class="edge">
<title>segments&#45;&gt;embedder</title>
<path fill="none" stroke="black" d="M184.12,-432.05C184.12,-424.68 184.12,-415.84 184.12,-407.51"/>
<polygon fill="black" stroke="black" points="187.63,-407.79 184.13,-397.79 180.63,-407.79 187.63,-407.79"/>
</g>
<!-- segmenter&#45;&gt;segments -->
<g id="edge9" class="edge">
<title>segmenter&#45;&gt;segments</title>
<path fill="none" stroke="black" d="M184.12,-503.7C184.12,-496.21 184.12,-487.26 184.12,-478.88"/>
<polygon fill="black" stroke="black" points="187.63,-479.14 184.13,-469.14 180.63,-479.14 187.63,-479.14"/>
</g>
<!-- embeddings -->
<g id="node12" class="node">
<title>embeddings</title>
<text text-anchor="middle" x="184.12" y="-300.95" font-family="Times,serif" font-size="14.00">embeddings</text>
</g>
<!-- planarizer -->
<g id="node15" class="node">
<title>planarizer</title>
<polygon fill="none" stroke="black" points="178.12,-252 108.12,-252 108.12,-216 178.12,-216 178.12,-252"/>
<text text-anchor="middle" x="143.12" y="-228.95" font-family="Times,serif" font-size="14.00">planarizer</text>
</g>
<!-- embeddings&#45;&gt;planarizer -->
<g id="edge14" class="edge">
<title>embeddings&#45;&gt;planarizer</title>
<path fill="none" stroke="black" d="M174.2,-288.05C169.63,-280.26 164.11,-270.82 158.99,-262.08"/>
<polygon fill="black" stroke="black" points="162.08,-260.44 154.01,-253.58 156.04,-263.98 162.08,-260.44"/>
</g>
<!-- clusterer -->
<g id="node17" class="node">
<title>clusterer</title>
<polygon fill="none" stroke="black" points="273.38,-252 210.88,-252 210.88,-216 273.38,-216 273.38,-252"/>
<text text-anchor="middle" x="242.12" y="-228.95" font-family="Times,serif" font-size="14.00">clusterer</text>
</g>
<!-- embeddings&#45;&gt;clusterer -->
<g id="edge16" class="edge">
<title>embeddings&#45;&gt;clusterer</title>
<path fill="none" stroke="black" d="M198.17,-288.05C204.9,-279.92 213.13,-270 220.63,-260.94"/>
<polygon fill="black" stroke="black" points="223.16,-263.37 226.85,-253.44 217.77,-258.91 223.16,-263.37"/>
</g>
<!-- embedder&#45;&gt;embeddings -->
<g id="edge11" class="edge">
<title>embedder&#45;&gt;embeddings</title>
<path fill="none" stroke="black" d="M184.12,-359.7C184.12,-352.21 184.12,-343.26 184.12,-334.88"/>
<polygon fill="black" stroke="black" points="187.63,-335.14 184.13,-325.14 180.63,-335.14 187.63,-335.14"/>
</g>
<!-- planar_vectors -->
<g id="node14" class="node">
<title>planar_vectors</title>
<text text-anchor="middle" x="136.12" y="-156.95" font-family="Times,serif" font-size="14.00">planar_vectors</text>
</g>
<!-- planar_vectors&#45;&gt;aggregator -->
<g id="edge19" class="edge">
<title>planar_vectors&#45;&gt;aggregator</title>
<path fill="none" stroke="black" d="M136.12,-144.05C136.12,-136.68 136.12,-127.84 136.12,-119.51"/>
<polygon fill="black" stroke="black" points="139.63,-119.79 136.13,-109.79 132.63,-119.79 139.63,-119.79"/>
</g>
<!-- planarizer&#45;&gt;planar_vectors -->
<g id="edge13" class="edge">
<title>planarizer&#45;&gt;planar_vectors</title>
<path fill="none" stroke="black" d="M141.39,-215.7C140.65,-208.21 139.75,-199.26 138.91,-190.88"/>
<polygon fill="black" stroke="black" points="142.42,-190.73 137.94,-181.13 135.45,-191.43 142.42,-190.73"/>
</g>
<!-- cluster_indices -->
<g id="node16" class="node">
<title>cluster_indices</title>
<text text-anchor="middle" x="250.12" y="-156.95" font-family="Times,serif" font-size="14.00">cluster_indices</text>
</g>
<!-- cluster_indices&#45;&gt;aggregator -->
<g id="edge20" class="edge">
<title>cluster_indices&#45;&gt;aggregator</title>
<path fill="none" stroke="black" d="M222.53,-144.05C207.9,-135.07 189.72,-123.91 173.82,-114.14"/>
<polygon fill="black" stroke="black" points="175.9,-111.32 165.55,-109.07 172.24,-117.28 175.9,-111.32"/>
</g>
<!-- clusterer&#45;&gt;cluster_indices -->
<g id="edge15" class="edge">
<title>clusterer&#45;&gt;cluster_indices</title>
<path fill="none" stroke="black" d="M244.1,-215.7C244.96,-208.21 245.98,-199.26 246.94,-190.88"/>
<polygon fill="black" stroke="black" points="250.4,-191.46 248.05,-181.13 243.44,-190.66 250.4,-191.46"/>
</g>
<!-- aggregate -->
<g id="node18" class="node">
<title>aggregate</title>
<text text-anchor="middle" x="136.12" y="-12.95" font-family="Times,serif" font-size="14.00">aggregate</text>
</g>
<!-- aggregator&#45;&gt;aggregate -->
<g id="edge17" class="edge">
<title>aggregator&#45;&gt;aggregate</title>
<path fill="none" stroke="black" d="M136.12,-71.7C136.12,-64.21 136.12,-55.26 136.12,-46.88"/>
<polygon fill="black" stroke="black" points="139.63,-47.14 136.13,-37.14 132.63,-47.14 139.63,-47.14"/>
</g>
</g>
</svg>
