<?xml version="1.0" encoding="UTF-8" standalone="no"?>
<!DOCTYPE svg PUBLIC "-//W3C//DTD SVG 1.1//EN"
 "http://www.w3.org/Graphics/SVG/1.1/DTD/svg11.dtd">
<!-- Generated by graphviz version 9.0.0 (20230911.1827)
 -->
<!-- Pages: 1 -->
<svg width="305pt" height="332pt"
 viewBox="0.00 0.00 305.38 332.00" xmlns="http://www.w3.org/2000/svg" xmlns:xlink="http://www.w3.org/1999/xlink">
<g id="graph0" class="graph" transform="scale(1 1) rotate(0) translate(4 328)">
<polygon fill="white" stroke="none" points="-4,4 -4,-328 301.38,-328 301.38,4 -4,4"/>
<!-- func -->
<g id="node1" class="node">
<title>func</title>
<text text-anchor="middle" x="191" y="-156.95" font-family="Times,serif" font-size="14.00">func</text>
</g>
<!-- save_func -->
<g id="node8" class="node">
<title>save_func</title>
<polygon fill="none" stroke="black" points="144.38,-108 73.62,-108 73.62,-72 144.38,-72 144.38,-108"/>
<text text-anchor="middle" x="109" y="-84.95" font-family="Times,serif" font-size="14.00">save_func</text>
</g>
<!-- func&#45;&gt;save_func -->
<g id="edge5" class="edge">
<title>func&#45;&gt;save_func</title>
<path fill="none" stroke="black" d="M171.15,-144.05C161.13,-135.5 148.78,-124.96 137.74,-115.54"/>
<polygon fill="black" stroke="black" points="140.27,-113.09 130.39,-109.26 135.72,-118.41 140.27,-113.09"/>
</g>
<!-- func_factory -->
<g id="node2" class="node">
<title>func_factory</title>
<text text-anchor="middle" x="136" y="-300.95" font-family="Times,serif" font-size="14.00">func_factory</text>
</g>
<!-- mk_func -->
<g id="node4" class="node">
<title>mk_func</title>
<polygon fill="none" stroke="black" points="223.38,-252 158.62,-252 158.62,-216 223.38,-216 223.38,-252"/>
<text text-anchor="middle" x="191" y="-228.95" font-family="Times,serif" font-size="14.00">mk_func</text>
</g>
<!-- func_factory&#45;&gt;mk_func -->
<g id="edge2" class="edge">
<title>func_factory&#45;&gt;mk_func</title>
<path fill="none" stroke="black" d="M149.31,-288.05C155.64,-280.01 163.34,-270.2 170.39,-261.23"/>
<polygon fill="black" stroke="black" points="173.07,-263.49 176.49,-253.47 167.56,-259.17 173.07,-263.49"/>
</g>
<!-- factory_params -->
<g id="node3" class="node">
<title>factory_params</title>
<text text-anchor="middle" x="247" y="-300.95" font-family="Times,serif" font-size="14.00">factory_params</text>
</g>
<!-- factory_params&#45;&gt;mk_func -->
<g id="edge3" class="edge">
<title>factory_params&#45;&gt;mk_func</title>
<path fill="none" stroke="black" d="M233.44,-288.05C227.01,-280.01 219.16,-270.2 211.98,-261.23"/>
<polygon fill="black" stroke="black" points="214.75,-259.08 205.77,-253.46 209.28,-263.45 214.75,-259.08"/>
</g>
<!-- mk_func&#45;&gt;func -->
<g id="edge1" class="edge">
<title>mk_func&#45;&gt;func</title>
<path fill="none" stroke="black" d="M191,-215.7C191,-208.21 191,-199.26 191,-190.88"/>
<polygon fill="black" stroke="black" points="194.5,-191.14 191,-181.14 187.5,-191.14 194.5,-191.14"/>
</g>
<!-- _ -->
<g id="node5" class="node">
<title>_</title>
<text text-anchor="middle" x="109" y="-12.95" font-family="Times,serif" font-size="14.00">_</text>
</g>
<!-- name -->
<g id="node6" class="node">
<title>name</title>
<text text-anchor="middle" x="27" y="-156.95" font-family="Times,serif" font-size="14.00">name</text>
</g>
<!-- name&#45;&gt;save_func -->
<g id="edge6" class="edge">
<title>name&#45;&gt;save_func</title>
<path fill="none" stroke="black" d="M46.85,-144.05C56.87,-135.5 69.22,-124.96 80.26,-115.54"/>
<polygon fill="black" stroke="black" points="82.28,-118.41 87.61,-109.26 77.73,-113.09 82.28,-118.41"/>
</g>
<!-- func_store -->
<g id="node7" class="node">
<title>func_store</title>
<text text-anchor="middle" x="109" y="-156.95" font-family="Times,serif" font-size="14.00">func_store</text>
</g>
<!-- func_store&#45;&gt;save_func -->
<g id="edge7" class="edge">
<title>func_store&#45;&gt;save_func</title>
<path fill="none" stroke="black" d="M109,-144.05C109,-136.68 109,-127.84 109,-119.51"/>
<polygon fill="black" stroke="black" points="112.5,-119.79 109,-109.79 105.5,-119.79 112.5,-119.79"/>
</g>
<!-- save_func&#45;&gt;_ -->
<g id="edge4" class="edge">
<title>save_func&#45;&gt;_</title>
<path fill="none" stroke="black" d="M109,-71.7C109,-64.21 109,-55.26 109,-46.88"/>
<polygon fill="black" stroke="black" points="112.5,-47.14 109,-37.14 105.5,-47.14 112.5,-47.14"/>
</g>
</g>
</svg>
